<mxfile host="app.diagrams.net" modified="2022-04-17T08:37:20.736Z" agent="5.0 (X11; Linux x86_64) AppleWebKit/537.36 (KHTML, like Gecko) Chrome/99.0.4844.82 Safari/537.36" etag="6RUKxkEfVMMT_fcNpaPE" version="17.4.5" type="github">
  <diagram id="l_Kuopv18ByYtJM7IO3L" name="第 1 页">
    <mxGraphModel dx="1036" dy="557" grid="0" gridSize="10" guides="1" tooltips="1" connect="1" arrows="1" fold="1" page="1" pageScale="1" pageWidth="1169" pageHeight="827" math="0" shadow="0">
      <root>
        <mxCell id="0" />
        <mxCell id="1" parent="0" />
        <mxCell id="z04J7d-O2pgqxvEKYmDe-3" style="edgeStyle=none;rounded=0;orthogonalLoop=1;jettySize=auto;html=1;entryX=0;entryY=0.5;entryDx=0;entryDy=0;fontSize=11;" edge="1" parent="1" source="z04J7d-O2pgqxvEKYmDe-9" target="z04J7d-O2pgqxvEKYmDe-12">
          <mxGeometry relative="1" as="geometry" />
        </mxCell>
        <mxCell id="z04J7d-O2pgqxvEKYmDe-5" style="edgeStyle=none;rounded=0;orthogonalLoop=1;jettySize=auto;html=1;entryX=0;entryY=0.5;entryDx=0;entryDy=0;fontSize=11;" edge="1" parent="1" source="z04J7d-O2pgqxvEKYmDe-9" target="z04J7d-O2pgqxvEKYmDe-14">
          <mxGeometry relative="1" as="geometry" />
        </mxCell>
        <mxCell id="z04J7d-O2pgqxvEKYmDe-9" value="用户" style="shape=umlActor;verticalLabelPosition=bottom;verticalAlign=top;html=1;" vertex="1" parent="1">
          <mxGeometry x="260" y="180" width="30" height="60" as="geometry" />
        </mxCell>
        <mxCell id="z04J7d-O2pgqxvEKYmDe-12" value="商品购买" style="ellipse;whiteSpace=wrap;html=1;" vertex="1" parent="1">
          <mxGeometry x="410" y="140" width="100" height="40" as="geometry" />
        </mxCell>
        <mxCell id="z04J7d-O2pgqxvEKYmDe-14" value="商品退货" style="ellipse;whiteSpace=wrap;html=1;" vertex="1" parent="1">
          <mxGeometry x="410" y="240" width="100" height="40" as="geometry" />
        </mxCell>
        <mxCell id="z04J7d-O2pgqxvEKYmDe-20" value="商品成交" style="ellipse;whiteSpace=wrap;html=1;" vertex="1" parent="1">
          <mxGeometry x="410" y="190" width="100" height="40" as="geometry" />
        </mxCell>
        <mxCell id="z04J7d-O2pgqxvEKYmDe-21" style="edgeStyle=none;rounded=0;orthogonalLoop=1;jettySize=auto;html=1;entryX=0;entryY=0.5;entryDx=0;entryDy=0;fontSize=11;" edge="1" parent="1" source="z04J7d-O2pgqxvEKYmDe-9" target="z04J7d-O2pgqxvEKYmDe-20">
          <mxGeometry relative="1" as="geometry">
            <mxPoint x="300" y="214.44444444444446" as="sourcePoint" />
            <mxPoint x="420" y="170" as="targetPoint" />
          </mxGeometry>
        </mxCell>
      </root>
    </mxGraphModel>
  </diagram>
</mxfile>
